<?xml version="1.0" encoding="UTF-8" standalone="no"?>
<svg
   id="Layer_1"
   data-name="Layer 1"
   viewBox="0 0 990.83309 279.54001"
   version="1.1"
   width="990.83307"
   height="279.54001"
   sodipodi:docname="HSI_versão simples.svg"
   inkscape:version="1.4 (e7c3feb1, 2024-10-09)"
   xmlns:inkscape="http://www.inkscape.org/namespaces/inkscape"
   xmlns:sodipodi="http://sodipodi.sourceforge.net/DTD/sodipodi-0.dtd"
   xmlns="http://www.w3.org/2000/svg"
   xmlns:svg="http://www.w3.org/2000/svg">
  <sodipodi:namedview
     id="namedview1"
     pagecolor="#ffffff"
     bordercolor="#000000"
     borderopacity="0.25"
     inkscape:showpageshadow="2"
     inkscape:pageopacity="0.0"
     inkscape:pagecheckerboard="0"
     inkscape:deskcolor="#d1d1d1"
     inkscape:zoom="0.98906668"
     inkscape:cx="495.41655"
     inkscape:cy="89.478295"
     inkscape:window-width="1696"
     inkscape:window-height="1382"
     inkscape:window-x="916"
     inkscape:window-y="30"
     inkscape:window-maximized="0"
     inkscape:current-layer="Layer_1" />
  <defs
     id="defs1">
    <style
       id="style1">
      .cls-1, .cls-2, .cls-3 {
        stroke-width: 0px;
      }

      .cls-1, .cls-3 {
        fill: #1a1a1a;
      }

      .cls-2 {
        fill: #00994a;
      }

      .cls-2, .cls-3 {
        fill-rule: evenodd;
      }
    </style>
  </defs>
  <g
     id="g39"
     transform="translate(-0.00690605)">
    <g
       id="g12">
      <path
         class="cls-1"
         d="m 446.46,234.8 v 42.98 H 441.1 V 234.8 Z"
         id="path1" />
      <path
         class="cls-1"
         d="m 465.38,277.78 v -45.03 l 32.26,33.8 V 234.8 H 503 v 44.74 l -32.26,-33.8 v 32.03 h -5.36 z"
         id="path2" />
      <path
         class="cls-1"
         d="m 533.61,239.7 v 38.08 h -5.36 V 239.7 h -10.2 v -4.9 h 25.76 v 4.9 z"
         id="path3" />
      <path
         class="cls-1"
         d="M 559.43,277.78 V 234.8 h 23.08 v 4.9 h -17.73 v 12.03 h 17.21 v 4.9 h -17.21 v 16.25 h 17.73 v 4.9 z"
         id="path4" />
      <path
         class="cls-1"
         d="m 605.89,234.8 v 38.08 h 13.05 v 4.9 H 600.53 V 234.8 Z"
         id="path5" />
      <path
         class="cls-1"
         d="m 639.23,234.8 v 38.08 h 13.05 v 4.9 H 633.87 V 234.8 Z"
         id="path6" />
      <path
         class="cls-1"
         d="m 672.41,234.8 v 42.98 h -5.36 V 234.8 Z"
         id="path7" />
      <path
         class="cls-1"
         d="M 713.96,256.12 H 731 v 1.71 c 0,5.97 -1.9,10.94 -5.7,14.91 -3.8,3.97 -8.68,5.96 -14.65,5.96 -5.97,0 -11.08,-2.21 -15.33,-6.64 -4.26,-4.43 -6.38,-9.64 -6.38,-15.65 0,-6.01 2.18,-11.49 6.53,-15.9 4.35,-4.41 9.6,-6.61 15.76,-6.61 3.38,0 6.62,0.73 9.72,2.19 3.1,1.46 5.69,3.5 7.78,6.13 l -3.76,3.59 c -1.56,-2.13 -3.55,-3.83 -5.99,-5.1 -2.44,-1.27 -4.94,-1.91 -7.52,-1.91 -4.79,0 -8.84,1.7 -12.17,5.1 -3.33,3.4 -4.99,7.52 -4.99,12.34 0,4.82 1.64,8.67 4.93,12.23 3.29,3.55 7.21,5.33 11.77,5.33 3.42,0 6.59,-1.27 9.52,-3.82 2.93,-2.55 4.45,-5.53 4.56,-8.95 h -11.12 v -4.9 z"
         id="path8" />
      <path
         class="cls-1"
         d="M 747.7,277.78 V 234.8 h 23.08 v 4.9 h -17.73 v 12.03 h 17.21 v 4.9 h -17.21 v 16.25 h 17.73 v 4.9 z"
         id="path9" />
      <path
         class="cls-1"
         d="m 788.29,277.78 v -45.03 l 32.26,33.8 V 234.8 h 5.36 v 44.74 l -32.26,-33.8 v 32.03 h -5.36 z"
         id="path10" />
      <path
         class="cls-1"
         d="M 876.24,236.79 V 243 c -3.16,-2.81 -6.94,-4.22 -11.34,-4.22 -4.75,0 -8.77,1.72 -12.06,5.16 -3.29,3.44 -4.93,7.57 -4.93,12.4 0,4.83 1.62,8.84 4.87,12.28 3.25,3.44 7.25,5.16 12,5.16 4.33,0 8.15,-1.48 11.46,-4.45 v 6.33 c -3.42,2.01 -7.18,3.02 -11.29,3.02 -6.16,0 -11.43,-2.15 -15.82,-6.44 -4.39,-4.29 -6.58,-9.54 -6.58,-15.73 0,-6.19 2.22,-11.7 6.67,-16.07 4.45,-4.37 9.84,-6.55 16.19,-6.55 4.07,0 7.67,0.97 10.83,2.91 z"
         id="path11" />
      <path
         class="cls-1"
         d="M 894.02,277.78 V 234.8 h 23.09 v 4.9 h -17.73 v 12.03 h 17.21 v 4.9 h -17.21 v 16.25 h 17.73 v 4.9 z"
         id="path12" />
    </g>
    <g
       id="g38">
      <path
         class="cls-2"
         d="M 124.94,8.81 106.92,81.15 69.07,109.93 H 33.1 l -11.05,39.61 h 62.19 l 6.9,-5.07 -11.93,47.87 H 12.04 c -15.58,0 -11.57,-16.81 -11.57,-16.81 0,0 36.6,-138.05 40.56,-153.04 3.95,-14.99 15,-13.68 15,-13.68 h 68.92 z m -28.82,194.62 17.22,-68.44 49.67,-36.51 h 40.33 l -23.2,90.56 c 0,0 -4.84,15.42 -24.89,15.42 -20.05,0 -59.13,-1.03 -59.13,-1.03 z M 129.54,70.6 142.33,19.77 h 81.17 l -10.84,42.3 -72.43,0.4 -10.68,8.13 z"
         id="path32" />
      <path
         class="cls-3"
         d="m 335.88,59.9 c 7.12,0 13.24,1.04 18.37,3.11 5.13,2.07 9.35,4.97 12.66,8.7 3.31,3.73 5.79,8.16 7.45,13.3 1.66,5.14 2.48,10.69 2.48,16.65 0,3.31 -0.21,6.67 -0.62,10.06 -0.41,3.4 -1.03,6.92 -1.86,10.56 l -16.88,70.58 h -37 l 16.39,-69.09 c 0.66,-2.82 1.28,-5.8 1.86,-8.95 0.58,-3.15 0.87,-6.13 0.87,-8.95 0,-4.31 -1.12,-7.99 -3.35,-11.06 -2.23,-3.07 -6.5,-4.6 -12.79,-4.6 -2.65,0 -5.17,0.17 -7.57,0.5 -2.4,0.33 -4.76,0.75 -7.08,1.24 l -24.09,100.9 h -37 L 291.75,8.78 h 37.03 l -13.01,53.6 c 3.31,-0.66 6.66,-1.24 10.06,-1.74 3.39,-0.5 6.75,-0.75 10.06,-0.75 z"
         id="path33" />
      <path
         class="cls-3"
         d="m 505.25,132.97 16.14,-67.6 c -4.8,-2.32 -9.85,-4.14 -15.15,-5.47 -5.3,-1.33 -10.35,-2.28 -15.15,-2.86 -4.8,-0.58 -9.06,-0.95 -12.79,-1.12 -3.72,-0.17 -6.33,-0.25 -7.82,-0.25 -11.42,0 -22.02,2.16 -31.79,6.46 -9.77,4.31 -18.25,10.23 -25.45,17.77 -7.2,7.54 -12.83,16.36 -16.88,26.47 -4.06,10.11 -6.08,20.88 -6.08,32.31 0,7.46 0.83,14.46 2.48,21 1.66,6.55 4.35,12.26 8.07,17.15 3.72,4.89 8.52,8.78 14.4,11.68 5.88,2.9 12.95,4.35 21.23,4.35 6.95,0 13.24,-1.24 18.87,-3.73 5.63,-2.48 10.76,-5.63 15.4,-9.44 0.83,2.32 1.66,4.39 2.48,6.21 0.83,1.82 1.74,3.73 2.73,5.72 l 33.03,-4.72 c -2.81,-7.29 -4.72,-15.74 -5.71,-25.35 -0.99,-9.61 -0.33,-19.14 1.99,-28.58 z m -35.51,-6.47 c -0.83,3.81 -1.61,7.99 -2.36,12.55 -0.75,4.55 -1.28,8.91 -1.61,13.05 -3.48,3.48 -6.74,5.96 -9.81,7.46 -3.06,1.49 -6.5,2.24 -10.3,2.24 -7.12,0 -12,-2.32 -14.65,-6.96 -2.65,-4.64 -3.97,-10.94 -3.97,-18.89 0,-6.46 1.04,-12.68 3.1,-18.64 2.07,-5.96 4.92,-11.22 8.57,-15.78 3.64,-4.56 7.9,-8.24 12.79,-11.06 4.88,-2.82 10.14,-4.22 15.77,-4.22 2.48,0 4.59,0.08 6.33,0.25 1.74,0.17 3.68,0.41 5.83,0.75 l -9.68,39.27 z"
         id="path34" />
      <path
         class="cls-3"
         d="m 623.73,93.94 c -3.31,-0.83 -6.58,-1.61 -9.81,-2.36 -3.23,-0.75 -7.99,-1.12 -14.28,-1.12 -2.32,0 -4.88,0.21 -7.7,0.62 -2.81,0.42 -5.13,0.87 -6.95,1.37 L 560.9,192.86 h -37 L 553.7,69.09 c 7.12,-2.32 15.1,-4.51 23.96,-6.59 8.86,-2.07 18.83,-3.11 29.92,-3.11 4.14,0 8.73,0.37 13.78,1.12 5.05,0.75 9.48,1.95 13.28,3.6 l -10.93,29.82 z"
         id="path35" />
      <path
         class="cls-3"
         d="m 681.64,109.35 c 9.77,-7.95 19.08,-16.07 27.93,-24.36 8.86,-8.28 16.43,-15.91 22.72,-22.87 h 41.72 c -9.27,10.27 -18.91,20.34 -28.93,30.2 -10.01,9.86 -21.48,20.34 -34.39,31.44 3.48,4.31 6.99,9.28 10.55,14.91 3.56,5.63 6.95,11.56 10.18,17.77 3.23,6.21 6.21,12.43 8.94,18.64 2.73,6.21 5.01,12.14 6.83,17.77 h -41.22 c -1.49,-4.31 -3.35,-9.03 -5.59,-14.17 -2.24,-5.14 -4.72,-10.23 -7.45,-15.29 -2.73,-5.05 -5.59,-9.98 -8.57,-14.79 -2.98,-4.81 -5.96,-9.11 -8.94,-12.92 l -13.9,57.16 H 624.77 L 669.47,5.96 707.96,0 Z"
         id="path36" />
      <path
         class="cls-3"
         d="m 877.24,76.42 c -2.07,-4.55 -4.97,-8.41 -8.69,-11.56 -3.72,-3.15 -8.07,-5.55 -13.04,-7.21 -4.97,-1.66 -10.35,-2.49 -16.14,-2.49 -11.75,0 -22.47,2.36 -32.15,7.08 -9.68,4.72 -17.92,10.94 -24.71,18.64 -6.79,7.71 -12.04,16.53 -15.77,26.47 -3.73,9.94 -5.59,20.21 -5.59,30.82 0,7.46 0.99,14.5 2.98,21.13 1.99,6.63 5.17,12.43 9.56,17.4 4.39,4.97 10.1,8.91 17.13,11.81 7.04,2.9 15.68,4.35 25.95,4.35 8.44,0 16.26,-0.75 23.46,-2.24 7.2,-1.49 13.12,-3.15 17.75,-4.97 l -2.73,-29.08 c -4.8,1.82 -9.93,3.19 -15.39,4.1 -5.46,0.91 -10.84,1.37 -16.14,1.37 -8.28,0 -14.4,-1.49 -18.38,-4.47 -3.97,-2.98 -6.54,-7.87 -7.7,-14.66 11.92,0 22.93,-0.91 33.03,-2.73 10.1,-1.82 18.83,-4.76 26.2,-8.82 7.37,-4.06 13.12,-9.32 17.26,-15.78 4.14,-6.46 6.21,-14.33 6.21,-23.61 0,-5.8 -1.03,-10.98 -3.1,-15.53 z m -32.16,26.85 c -1.16,2.4 -3.48,4.6 -6.95,6.59 -3.48,1.99 -8.36,3.69 -14.65,5.09 -6.29,1.41 -14.57,2.28 -24.83,2.61 1.99,-9.94 6.17,-17.94 12.54,-23.98 6.37,-6.05 13.78,-9.07 22.22,-9.07 4.3,0 7.61,1.04 9.93,3.11 2.32,2.07 3.48,5.01 3.48,8.82 0,2.16 -0.58,4.43 -1.74,6.84 z"
         id="path37" />
      <path
         class="cls-3"
         d="m 979.93,93.94 c -3.31,-0.83 -6.58,-1.61 -9.81,-2.36 -3.23,-0.75 -7.99,-1.12 -14.28,-1.12 -2.32,0 -4.88,0.21 -7.7,0.62 -2.81,0.42 -5.13,0.87 -6.95,1.37 L 917.1,192.86 h -37 L 909.9,69.09 c 7.12,-2.32 15.1,-4.51 23.96,-6.59 8.86,-2.07 18.83,-3.11 29.92,-3.11 4.14,0 8.73,0.37 13.78,1.12 5.05,0.75 9.48,1.95 13.28,3.6 l -10.93,29.82 z"
         id="path38" />
    </g>
  </g>
</svg>
