<?xml version="1.0" encoding="UTF-8"?>
<svg id="Layer_1" data-name="Layer 1" xmlns="http://www.w3.org/2000/svg" viewBox="0 0 990.85 326.31">
  <defs>
    <style>
      .cls-1, .cls-2, .cls-3 {
        stroke-width: 0px;
      }

      .cls-1, .cls-3 {
        fill: #1a1a1a;
      }

      .cls-2 {
        fill: #00994a;
      }

      .cls-2, .cls-3 {
        fill-rule: evenodd;
      }
    </style>
  </defs>
  <g>
    <path class="cls-1" d="M446.46,234.8v42.98h-5.36v-42.98h5.36Z"/>
    <path class="cls-1" d="M465.38,277.78v-45.03l32.26,33.8v-31.75h5.36v44.74l-32.26-33.8v32.03h-5.36Z"/>
    <path class="cls-1" d="M533.61,239.7v38.08h-5.36v-38.08h-10.2v-4.9h25.76v4.9h-10.2Z"/>
    <path class="cls-1" d="M559.43,277.78v-42.98h23.08v4.9h-17.73v12.03h17.21v4.9h-17.21v16.25h17.73v4.9h-23.08Z"/>
    <path class="cls-1" d="M605.89,234.8v38.08h13.05v4.9h-18.41v-42.98h5.36Z"/>
    <path class="cls-1" d="M639.23,234.8v38.08h13.05v4.9h-18.41v-42.98h5.36Z"/>
    <path class="cls-1" d="M672.41,234.8v42.98h-5.36v-42.98h5.36Z"/>
    <path class="cls-1" d="M713.96,256.12h17.04v1.71c0,5.97-1.9,10.94-5.7,14.91-3.8,3.97-8.68,5.96-14.65,5.96s-11.08-2.21-15.33-6.64c-4.26-4.43-6.38-9.64-6.38-15.65s2.18-11.49,6.53-15.9c4.35-4.41,9.6-6.61,15.76-6.61,3.38,0,6.62.73,9.72,2.19,3.1,1.46,5.69,3.5,7.78,6.13l-3.76,3.59c-1.56-2.13-3.55-3.83-5.99-5.1s-4.94-1.91-7.52-1.91c-4.79,0-8.84,1.7-12.17,5.1-3.33,3.4-4.99,7.52-4.99,12.34s1.64,8.67,4.93,12.23c3.29,3.55,7.21,5.33,11.77,5.33,3.42,0,6.59-1.27,9.52-3.82s4.45-5.53,4.56-8.95h-11.12v-4.9Z"/>
    <path class="cls-1" d="M747.7,277.78v-42.98h23.08v4.9h-17.73v12.03h17.21v4.9h-17.21v16.25h17.73v4.9h-23.08Z"/>
    <path class="cls-1" d="M788.29,277.78v-45.03l32.26,33.8v-31.75h5.36v44.74l-32.26-33.8v32.03h-5.36Z"/>
    <path class="cls-1" d="M876.24,236.79v6.21c-3.16-2.81-6.94-4.22-11.34-4.22-4.75,0-8.77,1.72-12.06,5.16-3.29,3.44-4.93,7.57-4.93,12.4s1.62,8.84,4.87,12.28c3.25,3.44,7.25,5.16,12,5.16,4.33,0,8.15-1.48,11.46-4.45v6.33c-3.42,2.01-7.18,3.02-11.29,3.02-6.16,0-11.43-2.15-15.82-6.44-4.39-4.29-6.58-9.54-6.58-15.73s2.22-11.7,6.67-16.07c4.45-4.37,9.84-6.55,16.19-6.55,4.07,0,7.67.97,10.83,2.91Z"/>
    <path class="cls-1" d="M894.02,277.78v-42.98h23.09v4.9h-17.73v12.03h17.21v4.9h-17.21v16.25h17.73v4.9h-23.09Z"/>
  </g>
  <g>
    <path class="cls-1" d="M443.88,316v9.39h-2.79v-22.4h3.21c3.31,0,5.64.54,7,1.62,1.36,1.08,2.04,2.7,2.04,4.86s-.73,3.86-2.18,4.93c-1.46,1.07-3.34,1.6-5.66,1.6h-1.6ZM443.88,305.48v8.02h.89c.81,0,1.53-.05,2.15-.15.62-.1,1.24-.28,1.86-.55.61-.27,1.09-.69,1.43-1.26.34-.57.5-1.29.5-2.14s-.18-1.52-.53-2.08-.86-.96-1.52-1.2c-.65-.25-1.29-.42-1.9-.51-.61-.09-1.33-.13-2.14-.13h-.74Z"/>
    <path class="cls-1" d="M468.6,315.65l7.07,9.75h-3.39l-6.6-9.48h-1.16v9.48h-2.79v-22.4h3.39c.85,0,1.54.01,2.06.04.52.03,1.16.12,1.9.28.74.16,1.39.4,1.95.71.91.53,1.63,1.29,2.15,2.26.52.97.79,2,.79,3.09,0,1.62-.5,3.03-1.49,4.2-.99,1.18-2.29,1.87-3.89,2.07ZM464.53,305.48v8.11h.89c.81,0,1.53-.05,2.15-.15.62-.1,1.24-.28,1.86-.55.61-.27,1.09-.69,1.43-1.26.34-.57.5-1.29.5-2.14,0-2.67-2.03-4.01-6.09-4.01h-.74Z"/>
    <path class="cls-1" d="M483.81,325.39v-22.4h12.03v2.55h-9.24v6.27h8.97v2.55h-8.97v8.47h9.24v2.56h-12.03Z"/>
    <path class="cls-1" d="M521.54,304.03v3.24c-1.64-1.47-3.62-2.2-5.91-2.2-2.48,0-4.57.9-6.28,2.69-1.71,1.79-2.57,3.95-2.57,6.46s.85,4.61,2.54,6.4,3.78,2.69,6.25,2.69c2.26,0,4.25-.77,5.97-2.32v3.3c-1.78,1.05-3.74,1.58-5.88,1.58-3.21,0-5.96-1.12-8.25-3.36s-3.43-4.97-3.43-8.2,1.16-6.1,3.48-8.38c2.32-2.28,5.13-3.42,8.44-3.42,2.12,0,4,.5,5.65,1.52Z"/>
    <path class="cls-1" d="M533.52,302.99v22.4h-2.79v-22.4h2.79Z"/>
    <path class="cls-1" d="M555.83,305.9l-2.23,1.34c-.83-1.41-2.03-2.11-3.6-2.11-.95,0-1.81.3-2.58.89-.77.59-1.16,1.36-1.16,2.29,0,1.35,1.04,2.42,3.12,3.21l1.6.62c1.78.69,3.15,1.55,4.11,2.58.96,1.03,1.44,2.42,1.44,4.16,0,2.02-.69,3.69-2.07,5.01s-3.08,1.98-5.09,1.98c-1.8,0-3.35-.59-4.64-1.77-1.29-1.18-2.05-2.68-2.29-4.5l2.82-.59c-.02,1.21.39,2.22,1.23,3.03.84.81,1.88,1.22,3.1,1.22s2.17-.43,2.96-1.29,1.17-1.89,1.17-3.08c0-1.09-.34-1.95-1.03-2.57-.68-.62-1.63-1.18-2.84-1.68l-1.54-.65c-1.53-.65-2.72-1.41-3.58-2.26-.86-.85-1.29-1.99-1.29-3.42,0-1.74.65-3.14,1.96-4.2s2.85-1.59,4.63-1.59c2.58,0,4.5,1.13,5.76,3.39Z"/>
    <path class="cls-1" d="M568.25,302.99v22.4h-2.79v-22.4h2.79Z"/>
    <path class="cls-1" d="M580.27,305.95c2.31-2.29,5.07-3.43,8.27-3.43s5.97,1.14,8.27,3.43,3.46,5.04,3.46,8.25-1.14,6.08-3.42,8.32c-2.28,2.24-5.05,3.36-8.32,3.36s-6.04-1.12-8.32-3.36c-2.28-2.24-3.42-5.01-3.42-8.32s1.15-5.96,3.46-8.25ZM582.24,320.62c1.76,1.75,3.86,2.63,6.3,2.63s4.54-.88,6.3-2.63c1.76-1.75,2.64-3.9,2.64-6.43s-.85-4.65-2.54-6.42c-1.69-1.76-3.83-2.64-6.4-2.64s-4.71.88-6.4,2.64c-1.69,1.76-2.54,3.9-2.54,6.42s.88,4.68,2.64,6.43Z"/>
    <path class="cls-1" d="M608.66,325.39v-23.47l16.82,17.62v-16.55h2.79v23.32l-16.82-17.62v16.7h-2.79Z"/>
    <path class="cls-1" d="M653.67,322.94c.34-.35.74-.52,1.22-.52s.88.17,1.22.52.5.75.5,1.2-.17.88-.5,1.22c-.34.34-.74.5-1.22.5s-.88-.17-1.22-.5c-.34-.34-.5-.74-.5-1.22s.17-.86.5-1.2Z"/>
    <path class="cls-1" d="M684.57,316v9.39h-2.79v-22.4h3.21c3.31,0,5.64.54,7,1.62,1.36,1.08,2.04,2.7,2.04,4.86s-.73,3.86-2.18,4.93c-1.46,1.07-3.34,1.6-5.66,1.6h-1.6ZM684.57,305.48v8.02h.89c.81,0,1.53-.05,2.15-.15.62-.1,1.24-.28,1.86-.55.61-.27,1.09-.69,1.43-1.26.34-.57.5-1.29.5-2.14s-.18-1.52-.53-2.08c-.36-.55-.86-.96-1.52-1.2-.65-.25-1.29-.42-1.9-.51-.61-.09-1.33-.13-2.14-.13h-.74Z"/>
    <path class="cls-1" d="M704.31,305.95c2.31-2.29,5.07-3.43,8.27-3.43s5.97,1.14,8.27,3.43,3.46,5.04,3.46,8.25-1.14,6.08-3.42,8.32c-2.28,2.24-5.05,3.36-8.32,3.36s-6.04-1.12-8.32-3.36c-2.28-2.24-3.42-5.01-3.42-8.32s1.15-5.96,3.46-8.25ZM706.29,320.62c1.76,1.75,3.86,2.63,6.3,2.63s4.54-.88,6.3-2.63c1.76-1.75,2.64-3.9,2.64-6.43s-.85-4.65-2.54-6.42c-1.69-1.76-3.83-2.64-6.4-2.64s-4.71.88-6.4,2.64c-1.69,1.76-2.54,3.9-2.54,6.42s.88,4.68,2.64,6.43Z"/>
    <path class="cls-1" d="M733.5,302.99l6.27,16.04,6.33-16.52,6.33,16.52,6.27-16.04h3.03l-9.3,23.29-6.33-16.43-6.33,16.43-9.3-23.29h3.03Z"/>
    <path class="cls-1" d="M769.43,325.39v-22.4h12.03v2.55h-9.24v6.27h8.97v2.55h-8.97v8.47h9.24v2.56h-12.03Z"/>
    <path class="cls-1" d="M797.71,315.65l7.07,9.75h-3.39l-6.6-9.48h-1.16v9.48h-2.79v-22.4h3.39c.85,0,1.54.01,2.07.04.52.03,1.16.12,1.9.28.74.16,1.39.4,1.95.71.91.53,1.63,1.29,2.15,2.26.53.97.79,2,.79,3.09,0,1.62-.5,3.03-1.49,4.2-.99,1.18-2.29,1.87-3.89,2.07ZM793.64,305.48v8.11h.89c.81,0,1.53-.05,2.15-.15.62-.1,1.24-.28,1.86-.55.61-.27,1.09-.69,1.43-1.26.34-.57.5-1.29.5-2.14,0-2.67-2.03-4.01-6.09-4.01h-.74Z"/>
    <path class="cls-1" d="M828.4,322.94c.34-.35.74-.52,1.22-.52s.88.17,1.22.52.5.75.5,1.2-.17.88-.5,1.22c-.34.34-.74.5-1.22.5s-.88-.17-1.22-.5c-.34-.34-.5-.74-.5-1.22s.17-.86.5-1.2Z"/>
    <path class="cls-1" d="M862.54,314.7v-2.32c2.93,0,4.4-1.2,4.4-3.59,0-1.13-.37-2.05-1.1-2.76-.73-.71-1.66-1.07-2.79-1.07-1.01,0-1.84.29-2.5.88-.65.58-1.06,1.36-1.22,2.33h-2.76c.26-1.84.96-3.24,2.09-4.21,1.14-.96,2.63-1.44,4.47-1.44s3.38.55,4.62,1.65c1.24,1.1,1.86,2.56,1.86,4.38,0,2.3-.95,3.98-2.85,5.05,2.12,1.01,3.18,2.86,3.18,5.56,0,2.04-.68,3.67-2.04,4.89-1.36,1.22-3.07,1.83-5.13,1.83-1.82,0-3.4-.55-4.72-1.66-1.33-1.11-2.03-2.56-2.11-4.34h2.7c.14,1.07.62,1.93,1.44,2.58.82.65,1.79.98,2.9.98,1.23,0,2.25-.43,3.06-1.28.81-.85,1.22-1.89,1.22-3.12,0-1.41-.44-2.51-1.32-3.3-.88-.79-2.02-1.14-3.4-1.04Z"/>
    <path class="cls-1" d="M888.75,302.51l2.02,1.37-5.97,8.08.06.06c.71-.36,1.45-.54,2.2-.54,1.8,0,3.33.71,4.59,2.12s1.89,3.04,1.89,4.89c0,2.04-.72,3.78-2.17,5.21-1.45,1.44-3.19,2.15-5.23,2.15s-3.7-.71-5.2-2.12c-1.5-1.42-2.26-3.09-2.26-5.04,0-1.76.81-3.73,2.44-5.91l7.64-10.28ZM886.1,323.37c1.27,0,2.38-.46,3.33-1.37.95-.91,1.43-1.98,1.43-3.21,0-1.35-.49-2.49-1.46-3.42s-2.07-1.4-3.3-1.4-2.33.48-3.3,1.43c-.97.95-1.46,2.03-1.46,3.24,0,1.29.47,2.4,1.41,3.33.94.93,2.05,1.4,3.34,1.4Z"/>
    <path class="cls-1" d="M912.2,325.08c-.9.52-1.91.79-3.02.79s-2.12-.26-3.02-.79c-.9-.53-1.64-1.19-2.23-2.01-.58-.81-1.08-1.74-1.47-2.79-.4-1.05-.68-2.08-.85-3.1-.17-1.02-.25-2.02-.25-2.99,0-1.25.14-2.51.43-3.79.29-1.28.72-2.53,1.29-3.74.57-1.22,1.39-2.21,2.45-2.99,1.06-.77,2.27-1.16,3.64-1.16s2.58.39,3.64,1.16c1.06.77,1.88,1.77,2.45,2.99.57,1.22,1,2.47,1.29,3.74.29,1.28.43,2.54.43,3.79,0,.97-.08,1.97-.25,2.99-.17,1.02-.45,2.05-.85,3.1-.4,1.05-.89,1.98-1.47,2.79-.58.81-1.33,1.48-2.23,2.01ZM911.67,305.89c-.7-.66-1.53-1-2.48-1s-1.78.33-2.48,1c-.7.66-1.24,1.5-1.6,2.51s-.63,2.01-.8,2.99c-.17.98-.25,1.91-.25,2.78s.08,1.79.25,2.76c.17.97.44,1.96.8,2.97.37,1.01.9,1.84,1.6,2.5s1.53.98,2.48.98,1.78-.33,2.48-.98,1.24-1.49,1.6-2.5c.37-1.01.63-2,.8-2.97.17-.97.25-1.89.25-2.76s-.08-1.8-.25-2.78c-.17-.98-.44-1.98-.8-2.99s-.9-1.85-1.6-2.51Z"/>
  </g>
  <g>
    <path class="cls-2" d="M124.94,8.81l-18.02,72.34-37.85,28.78h-35.97l-11.05,39.61h62.19l6.9-5.07-11.93,47.87H12.04c-15.58,0-11.57-16.81-11.57-16.81,0,0,36.6-138.05,40.56-153.04,3.95-14.99,15-13.68,15-13.68h68.92ZM96.12,203.43l17.22-68.44,49.67-36.51h40.33l-23.2,90.56s-4.84,15.42-24.89,15.42-59.13-1.03-59.13-1.03ZM129.54,70.6l12.79-50.83h81.17l-10.84,42.3-72.43.4-10.68,8.13Z"/>
    <path class="cls-3" d="M335.88,59.9c7.12,0,13.24,1.04,18.37,3.11,5.13,2.07,9.35,4.97,12.66,8.7,3.31,3.73,5.79,8.16,7.45,13.3,1.66,5.14,2.48,10.69,2.48,16.65,0,3.31-.21,6.67-.62,10.06-.41,3.4-1.03,6.92-1.86,10.56l-16.88,70.58h-37l16.39-69.09c.66-2.82,1.28-5.8,1.86-8.95.58-3.15.87-6.13.87-8.95,0-4.31-1.12-7.99-3.35-11.06-2.23-3.07-6.5-4.6-12.79-4.6-2.65,0-5.17.17-7.57.5-2.4.33-4.76.75-7.08,1.24l-24.09,100.9h-37L291.75,8.78h37.03l-13.01,53.6c3.31-.66,6.66-1.24,10.06-1.74,3.39-.5,6.75-.75,10.06-.75Z"/>
    <path class="cls-3" d="M505.25,132.97l16.14-67.6c-4.8-2.32-9.85-4.14-15.15-5.47-5.3-1.33-10.35-2.28-15.15-2.86-4.8-.58-9.06-.95-12.79-1.12-3.72-.17-6.33-.25-7.82-.25-11.42,0-22.02,2.16-31.79,6.46-9.77,4.31-18.25,10.23-25.45,17.77-7.2,7.54-12.83,16.36-16.88,26.47-4.06,10.11-6.08,20.88-6.08,32.31,0,7.46.83,14.46,2.48,21,1.66,6.55,4.35,12.26,8.07,17.15,3.72,4.89,8.52,8.78,14.4,11.68,5.88,2.9,12.95,4.35,21.23,4.35,6.95,0,13.24-1.24,18.87-3.73,5.63-2.48,10.76-5.63,15.4-9.44.83,2.32,1.66,4.39,2.48,6.21.83,1.82,1.74,3.73,2.73,5.72l33.03-4.72c-2.81-7.29-4.72-15.74-5.71-25.35-.99-9.61-.33-19.14,1.99-28.58ZM469.74,126.5c-.83,3.81-1.61,7.99-2.36,12.55-.75,4.55-1.28,8.91-1.61,13.05-3.48,3.48-6.74,5.96-9.81,7.46-3.06,1.49-6.5,2.24-10.3,2.24-7.12,0-12-2.32-14.65-6.96-2.65-4.64-3.97-10.94-3.97-18.89,0-6.46,1.04-12.68,3.1-18.64,2.07-5.96,4.92-11.22,8.57-15.78,3.64-4.56,7.9-8.24,12.79-11.06,4.88-2.82,10.14-4.22,15.77-4.22,2.48,0,4.59.08,6.33.25,1.74.17,3.68.41,5.83.75l-9.68,39.27Z"/>
    <path class="cls-3" d="M623.73,93.94c-3.31-.83-6.58-1.61-9.81-2.36-3.23-.75-7.99-1.12-14.28-1.12-2.32,0-4.88.21-7.7.62-2.81.42-5.13.87-6.95,1.37l-24.09,100.41h-37l29.8-123.77c7.12-2.32,15.1-4.51,23.96-6.59,8.86-2.07,18.83-3.11,29.92-3.11,4.14,0,8.73.37,13.78,1.12,5.05.75,9.48,1.95,13.28,3.6l-10.93,29.82Z"/>
    <path class="cls-3" d="M681.64,109.35c9.77-7.95,19.08-16.07,27.93-24.36,8.86-8.28,16.43-15.91,22.72-22.87h41.72c-9.27,10.27-18.91,20.34-28.93,30.2-10.01,9.86-21.48,20.34-34.39,31.44,3.48,4.31,6.99,9.28,10.55,14.91,3.56,5.63,6.95,11.56,10.18,17.77,3.23,6.21,6.21,12.43,8.94,18.64,2.73,6.21,5.01,12.14,6.83,17.77h-41.22c-1.49-4.31-3.35-9.03-5.59-14.17-2.24-5.14-4.72-10.23-7.45-15.29-2.73-5.05-5.59-9.98-8.57-14.79-2.98-4.81-5.96-9.11-8.94-12.92l-13.9,57.16h-36.75L669.47,5.96l38.49-5.96-26.32,109.35Z"/>
    <path class="cls-3" d="M877.24,76.42c-2.07-4.55-4.97-8.41-8.69-11.56-3.72-3.15-8.07-5.55-13.04-7.21-4.97-1.66-10.35-2.49-16.14-2.49-11.75,0-22.47,2.36-32.15,7.08-9.68,4.72-17.92,10.94-24.71,18.64-6.79,7.71-12.04,16.53-15.77,26.47-3.73,9.94-5.59,20.21-5.59,30.82,0,7.46.99,14.5,2.98,21.13,1.99,6.63,5.17,12.43,9.56,17.4,4.39,4.97,10.1,8.91,17.13,11.81,7.04,2.9,15.68,4.35,25.95,4.35,8.44,0,16.26-.75,23.46-2.24,7.2-1.49,13.12-3.15,17.75-4.97l-2.73-29.08c-4.8,1.82-9.93,3.19-15.39,4.1-5.46.91-10.84,1.37-16.14,1.37-8.28,0-14.4-1.49-18.38-4.47-3.97-2.98-6.54-7.87-7.7-14.66,11.92,0,22.93-.91,33.03-2.73,10.1-1.82,18.83-4.76,26.2-8.82,7.37-4.06,13.12-9.32,17.26-15.78,4.14-6.46,6.21-14.33,6.21-23.61,0-5.8-1.03-10.98-3.1-15.53ZM845.08,103.27c-1.16,2.4-3.48,4.6-6.95,6.59-3.48,1.99-8.36,3.69-14.65,5.09-6.29,1.41-14.57,2.28-24.83,2.61,1.99-9.94,6.17-17.94,12.54-23.98,6.37-6.05,13.78-9.07,22.22-9.07,4.3,0,7.61,1.04,9.93,3.11,2.32,2.07,3.48,5.01,3.48,8.82,0,2.16-.58,4.43-1.74,6.84Z"/>
    <path class="cls-3" d="M979.93,93.94c-3.31-.83-6.58-1.61-9.81-2.36-3.23-.75-7.99-1.12-14.28-1.12-2.32,0-4.88.21-7.7.62-2.81.42-5.13.87-6.95,1.37l-24.09,100.41h-37l29.8-123.77c7.12-2.32,15.1-4.51,23.96-6.59,8.86-2.07,18.83-3.11,29.92-3.11,4.14,0,8.73.37,13.78,1.12,5.05.75,9.48,1.95,13.28,3.6l-10.93,29.82Z"/>
  </g>
</svg>